<svg xmlns="http://www.w3.org/2000/svg" viewBox="0 0 1280 360" width="1280" height="360" role="img" aria-label="Centennial Web: community feedback for Centennial Olympic Park">
  <rect width="1280" height="360" fill="#15171c"/>
  <rect x="24.5" y="24.5" width="1231" height="311" fill="none" stroke="#2c3039"/>
  <text x="80" y="104" font-family="ui-monospace, SFMono-Regular, Menlo, monospace" font-size="15" letter-spacing="2.5" fill="#9a958b">TOMMYWUBC / CENTENNIAL-WEB</text>
  <line x1="80" y1="124" x2="140" y2="124" stroke="#8fb0e8" stroke-width="2"/>
  <text x="78" y="200" font-family="ui-serif, Georgia, 'Times New Roman', serif" font-size="70" fill="#ece8e1">Centennial Web</text>
  <text x="80" y="244" font-family="-apple-system, 'Segoe UI', Helvetica, Arial, sans-serif" font-size="22" fill="#9a958b">Community feedback for Centennial Olympic Park, Atlanta.</text>
  <text x="80" y="292" font-family="ui-monospace, SFMono-Regular, Menlo, monospace" font-size="13" letter-spacing="1.5" fill="#9a958b">NEXT.JS 14 · FIREBASE · BUILT FOR ENGL 1101</text>

  <!-- park plan -->
  <g transform="translate(790 70)">
    <path d="M40 0 H190 Q210 0 210 20 V170 L130 220 H40 L0 175 L50 110 L0 50 Z" fill="#1d2027" stroke="#ece8e1" stroke-width="1.5" stroke-linejoin="round"/>
    <g stroke="#2c3039" stroke-width="1">
      <line x1="40" y1="0" x2="40" y2="220"/>
      <line x1="95" y1="0" x2="95" y2="220"/>
      <line x1="150" y1="0" x2="150" y2="205"/>
      <line x1="10" y1="60" x2="210" y2="60"/>
      <line x1="50" y1="110" x2="210" y2="110"/>
      <line x1="10" y1="165" x2="210" y2="165"/>
    </g>
    <rect x="104" y="120" width="38" height="36" fill="#222b3a" stroke="#8fb0e8" stroke-width="1"/>
    <path d="M20 190 C 60 150, 70 90, 122 138 S 175 60, 180 30" fill="none" stroke="#c8553d" stroke-width="1.5" stroke-dasharray="5 5"/>
    <circle cx="20" cy="190" r="4" fill="#15171c" stroke="#c8553d" stroke-width="1.5"/>
    <circle cx="180" cy="30" r="6" fill="#8fb0e8"/>
    <circle cx="180" cy="30" r="11" fill="none" stroke="#8fb0e8" stroke-width="1"/>
    <text x="0" y="248" font-family="ui-monospace, SFMono-Regular, Menlo, monospace" font-size="11" letter-spacing="1.5" fill="#9a958b">HOME → HISTORY → CHALLENGES</text>
  </g>

  <!-- idea board -->
  <g transform="translate(1040 78)" font-family="ui-monospace, SFMono-Regular, Menlo, monospace">
    <g>
      <rect x="0.5" y="0.5" width="160" height="56" fill="#15171c" stroke="#2c3039"/>
      <path d="M16 30 L24 20 L32 30" fill="none" stroke="#8fb0e8" stroke-width="2" stroke-linecap="round" stroke-linejoin="round"/>
      <rect x="18" y="36" width="12" height="3" fill="#8fb0e8"/>
      <rect x="46" y="18" width="92" height="6" fill="#ece8e1" opacity="0.8"/>
      <rect x="46" y="32" width="70" height="4" fill="#2c3039"/>
    </g>
    <g transform="translate(0 72)">
      <rect x="0.5" y="0.5" width="160" height="56" fill="#15171c" stroke="#2c3039"/>
      <path d="M16 30 L24 20 L32 30" fill="none" stroke="#9a958b" stroke-width="2" stroke-linecap="round" stroke-linejoin="round"/>
      <rect x="46" y="18" width="80" height="6" fill="#ece8e1" opacity="0.8"/>
      <rect x="46" y="32" width="96" height="4" fill="#2c3039"/>
    </g>
    <g transform="translate(0 144)">
      <rect x="0.5" y="0.5" width="160" height="56" fill="#15171c" stroke="#2c3039"/>
      <path d="M16 30 L24 20 L32 30" fill="none" stroke="#9a958b" stroke-width="2" stroke-linecap="round" stroke-linejoin="round"/>
      <rect x="46" y="18" width="64" height="6" fill="#ece8e1" opacity="0.8"/>
      <rect x="46" y="32" width="84" height="4" fill="#2c3039"/>
    </g>
    <text x="0" y="240" font-size="11" letter-spacing="1.5" fill="#9a958b">→ IDEAS, UPVOTED</text>
  </g>
</svg>
